<?xml version="1.0" encoding="UTF-8"?>
<svg width="5px" height="7px" viewBox="0 0 5 7" version="1.1" xmlns="http://www.w3.org/2000/svg" xmlns:xlink="http://www.w3.org/1999/xlink">
    <!-- Generator: Sketch 51.2 (57519) - http://www.bohemiancoding.com/sketch -->
    <title>下级箭头</title>
    <desc>Created with Sketch.</desc>
    <defs></defs>
    <g id="Page-1" stroke="none" stroke-width="1" fill="none" fill-rule="evenodd">
        <g id="下级箭头" transform="translate(2.500000, 3.500000) rotate(-90.000000) translate(-2.500000, -3.500000) translate(-1.000000, 1.000000)" fill="#3C98F3" fill-rule="nonzero">
            <path d="M4.35354132,4.82917501 L6.85356274,2.76663926 C7.04881242,2.60555686 7.04881242,2.34443654 6.85356274,2.18334754 L4.35354132,0.120811794 C4.15829164,-0.040270598 3.84178493,-0.040270598 3.64652726,0.120811794 C3.45127758,0.281894186 3.45127758,0.543014512 3.64652726,0.704103504 L5.29304537,2.06249285 L0.500004286,2.06249285 C0.223753918,2.06249285 0,2.24709145 0,2.475 C0,2.70290855 0.223753918,2.88750715 0.500004286,2.88750715 L5.29304537,2.88750715 L3.64652726,4.2458965 C3.54902242,4.32633869 3.500022,4.43194052 3.500022,4.53754235 C3.500022,4.64314418 3.54878242,4.74874601 3.64652726,4.82918821 C3.84177693,4.9902706 4.15828364,4.9902706 4.35354132,4.82918821 L4.35354132,4.82917501 Z" id="Shape"></path>
        </g>
    </g>
</svg>